<?xml version="1.0" encoding="UTF-8" standalone="no"?>
<!-- Created with Inkscape (http://www.inkscape.org/) -->

<svg
   xmlns:dc="http://purl.org/dc/elements/1.1/"
   xmlns:cc="http://creativecommons.org/ns#"
   xmlns:rdf="http://www.w3.org/1999/02/22-rdf-syntax-ns#"
   xmlns:svg="http://www.w3.org/2000/svg"
   xmlns="http://www.w3.org/2000/svg"
   xmlns:sodipodi="http://sodipodi.sourceforge.net/DTD/sodipodi-0.dtd"
   xmlns:inkscape="http://www.inkscape.org/namespaces/inkscape"
   width="48px"
   height="48px"
   id="svg3052"
   version="1.1"
   inkscape:version="0.48.4 r9939"
   sodipodi:docname="rss_b.svg"
   inkscape:export-filename="/home/ravi/Desktop/rss_b.png"
   inkscape:export-xdpi="90"
   inkscape:export-ydpi="90">
  <defs
     id="defs3054" />
  <sodipodi:namedview
     id="base"
     pagecolor="#ffffff"
     bordercolor="#666666"
     borderopacity="1.0"
     inkscape:pageopacity="0.0"
     inkscape:pageshadow="2"
     inkscape:zoom="7"
     inkscape:cx="24"
     inkscape:cy="24"
     inkscape:current-layer="layer2"
     showgrid="true"
     inkscape:grid-bbox="true"
     inkscape:document-units="px"
     inkscape:window-width="1855"
     inkscape:window-height="1056"
     inkscape:window-x="65"
     inkscape:window-y="24"
     inkscape:window-maximized="1" />
  <metadata
     id="metadata3057">
    <rdf:RDF>
      <cc:Work
         rdf:about="">
        <dc:format>image/svg+xml</dc:format>
        <dc:type
           rdf:resource="http://purl.org/dc/dcmitype/StillImage" />
        <dc:title />
      </cc:Work>
    </rdf:RDF>
  </metadata>
  <g
     id="layer1"
     inkscape:label="Layer 1"
     inkscape:groupmode="layer">
    <path
       sodipodi:type="arc"
       style="fill:#4d4d4d;fill-opacity:0.78021982;stroke:none"
       id="path2993"
       sodipodi:cx="15.672719"
       sodipodi:cy="17.13101"
       sodipodi:rx="13.975957"
       sodipodi:ry="14.06526"
       d="m 29.648676,17.13101 a 13.975957,14.06526 0 1 1 -27.9519139,0 13.975957,14.06526 0 1 1 27.9519139,0 z"
       transform="matrix(1.513648,0,0,1.5354506,0.41987729,-1.8752487)"
       inkscape:export-filename="/home/ravi/Desktop/gplus_b.png"
       inkscape:export-xdpi="90"
       inkscape:export-ydpi="90" />
    <path
       style="opacity:0.32525952;fill:#e3dbdb;fill-opacity:0.78021982;stroke:none"
       d="M 12.654287,6.3380483 C 2.7980273,12.834484 0.14443229,26.270206 6.7011263,36.316901 c 0.008,0.01227 0.01543,0.0237 0.0234,0.03586 L 42.410206,12.831698 c -0.0079,-0.01226 -0.01545,-0.02366 -0.02341,-0.03586 C 35.830109,2.7491473 22.51055,-0.15838371 12.654287,6.3380533 z"
       id="path3763"
       inkscape:connector-curvature="0"
       inkscape:export-filename="/home/ravi/Desktop/gplus_b.png"
       inkscape:export-xdpi="90"
       inkscape:export-ydpi="90" />
  </g>
  <g
     inkscape:groupmode="layer"
     id="layer2"
     inkscape:label="rssicon">
    <path
       style="fill:#ffffff"
       id="path2992"
       d="m 13.461802,24.512178 c 2.721856,0 5.280578,1.122422 7.203466,3.163948 1.926404,2.041528 2.987004,4.760778 2.987004,7.655496 h 4.194471 c 0,-8.407953 -6.453302,-15.24786 -14.384941,-15.24786 v 4.428416 z m 0.0067,-7.849995 c 9.700622,0 17.593124,8.37732 17.593124,18.675009 h 4.194468 c 0,-12.739817 -9.774495,-23.102958 -21.787595,-23.102958 v 4.427949 z m 5.80032,15.581619 c 0,1.69338 -1.301127,3.06693 -2.905218,3.06693 -1.604092,0 -2.905219,-1.373086 -2.905219,-3.06693 0,-1.694311 1.300687,-3.066936 2.904778,-3.066936 1.604094,0 2.905659,1.372625 2.905659,3.066936 z"
       inkscape:connector-curvature="0" />
  </g>
</svg>
