<?xml version="1.0" encoding="UTF-8" standalone="no"?>
<!-- Created with Inkscape (http://www.inkscape.org/) -->

<svg
   xmlns:dc="http://purl.org/dc/elements/1.1/"
   xmlns:cc="http://creativecommons.org/ns#"
   xmlns:rdf="http://www.w3.org/1999/02/22-rdf-syntax-ns#"
   xmlns:svg="http://www.w3.org/2000/svg"
   xmlns="http://www.w3.org/2000/svg"
   xmlns:sodipodi="http://sodipodi.sourceforge.net/DTD/sodipodi-0.dtd"
   xmlns:inkscape="http://www.inkscape.org/namespaces/inkscape"
   width="48px"
   height="48px"
   id="svg2999"
   version="1.1"
   inkscape:version="0.48.4 r9939"
   sodipodi:docname="mail_b.svg"
   inkscape:export-filename="/home/ravi/Desktop/mail_b.png"
   inkscape:export-xdpi="90"
   inkscape:export-ydpi="90">
  <defs
     id="defs3001" />
  <sodipodi:namedview
     id="base"
     pagecolor="#ffffff"
     bordercolor="#666666"
     borderopacity="1.0"
     inkscape:pageopacity="0.0"
     inkscape:pageshadow="2"
     inkscape:zoom="7"
     inkscape:cx="24"
     inkscape:cy="24"
     inkscape:current-layer="layer2"
     showgrid="true"
     inkscape:grid-bbox="true"
     inkscape:document-units="px"
     inkscape:window-width="1855"
     inkscape:window-height="1056"
     inkscape:window-x="65"
     inkscape:window-y="24"
     inkscape:window-maximized="1" />
  <metadata
     id="metadata3004">
    <rdf:RDF>
      <cc:Work
         rdf:about="">
        <dc:format>image/svg+xml</dc:format>
        <dc:type
           rdf:resource="http://purl.org/dc/dcmitype/StillImage" />
        <dc:title />
      </cc:Work>
    </rdf:RDF>
  </metadata>
  <g
     id="layer1"
     inkscape:label="Layer 1"
     inkscape:groupmode="layer">
    <path
       sodipodi:type="arc"
       style="fill:#4d4d4d;fill-opacity:0.78021982;stroke:none"
       id="path2993"
       sodipodi:cx="15.672719"
       sodipodi:cy="17.13101"
       sodipodi:rx="13.975957"
       sodipodi:ry="14.06526"
       d="m 29.648676,17.13101 a 13.975957,14.06526 0 1 1 -27.9519139,0 13.975957,14.06526 0 1 1 27.9519139,0 z"
       transform="matrix(1.513648,0,0,1.5354506,0.27701986,-2.4466764)"
       inkscape:export-filename="/home/ravi/Desktop/gplus_b.png"
       inkscape:export-xdpi="90"
       inkscape:export-ydpi="90" />
    <path
       style="opacity:0.32525952;fill:#e3dbdb;fill-opacity:0.78021982;stroke:none"
       d="M 12.51143,5.7666196 C 2.6551699,12.263057 0.00157486,25.698779 6.5582689,35.745474 c 0.008,0.01227 0.01543,0.0237 0.0234,0.03586 L 42.267349,12.260271 c -0.0079,-0.01226 -0.01545,-0.02366 -0.02341,-0.03586 C 35.687252,2.1777186 22.367693,-0.72981143 12.51143,5.7666256 z"
       id="path3763"
       inkscape:connector-curvature="0"
       inkscape:export-filename="/home/ravi/Desktop/gplus_b.png"
       inkscape:export-xdpi="90"
       inkscape:export-ydpi="90" />
  </g>
  <g
     inkscape:groupmode="layer"
     id="layer2"
     inkscape:label="Mailicon">
    <g
       transform="matrix(1.9183674,0,0,1.6857141,9.0816331,10.371428)"
       style="fill:#ffffff;stroke:none"
       id="Icons with numbers">
      <g
         style="fill:#ffffff"
         id="Group"
         transform="translate(-336,0)">
        <path
           inkscape:connector-curvature="0"
           d="m 345.73196,8.4845362 4.94979,4.2426818 C 350.50168,12.895464 350.2595,13 349.99315,13 l -11.98631,0 c -0.26765,0 -0.5106,-0.102945 -0.69077,-0.270915 L 342.26804,8.4845362 344,10 z M 344,9 337.31824,3.2727818 C 337.49832,3.1045365 337.7405,3 338.00684,3 l 11.98631,0 c 0.26766,0 0.51061,0.1029448 0.69078,0.2709155 z m 7,3.185608 L 346.16736,8.0788577 351,3.875422 l 0,8.310186 0,0 z m -14,0 0,-8.3074561 4.83264,4.2007055 L 337,12.185608 l 0,0 z m 0,0"
           id="Shape"
           style="fill:#ffffff" />
      </g>
    </g>
  </g>
</svg>
